<?xml version="1.0" standalone="no"?>
<!DOCTYPE svg PUBLIC "-//W3C//DTD SVG 20010904//EN"
 "http://www.w3.org/TR/2001/REC-SVG-20010904/DTD/svg10.dtd">
<svg version="1.0" xmlns="http://www.w3.org/2000/svg"
 width="1345.000000pt" height="935.000000pt" viewBox="0 0 1345.000000 935.000000"
 preserveAspectRatio="xMidYMid meet">
<metadata>
Created by potrace 1.16, written by Peter Selinger 2001-2019
</metadata>
<g transform="translate(0.000000,935.000000) scale(0.100000,-0.100000)"
fill="#000000" stroke="none">
<path d="M7752 8690 c-126 -34 -226 -93 -327 -195 -146 -145 -205 -287 -205
-495 0 -130 18 -210 72 -320 34 -69 60 -103 133 -176 150 -151 304 -214 518
-214 136 0 212 17 336 77 79 38 107 58 180 131 149 151 202 269 209 472 3 91
0 143 -12 192 -55 236 -236 434 -471 514 -69 24 -99 28 -220 31 -115 2 -153
-1 -213 -17z"/>
<path d="M7085 7071 c-90 -25 -136 -45 -204 -88 -158 -101 -275 -261 -316
-435 -19 -81 -19 -255 0 -336 55 -232 233 -425 470 -509 75 -26 91 -28 235
-28 144 0 160 2 235 28 237 84 415 277 470 509 19 81 19 255 0 336 -55 232
-236 427 -470 508 -109 37 -312 45 -420 15z"/>
<path d="M818 6740 c-116 -24 -177 -45 -271 -91 -269 -134 -435 -337 -520
-637 -21 -74 -21 -98 -25 -694 l-3 -618 456 0 455 0 0 531 c0 523 0 532 21
569 59 105 202 104 264 -1 19 -33 20 -55 23 -566 l3 -533 455 0 455 0 -4 593
c-3 552 -5 598 -24 682 -68 299 -249 536 -508 667 -80 41 -221 87 -313 103
-120 21 -353 19 -464 -5z"/>
<path d="M5315 6690 c-252 -19 -457 -105 -623 -264 -112 -107 -183 -231 -230
-406 l-26 -95 -4 -612 -3 -613 455 0 456 0 0 548 c0 421 3 553 13 572 l13 25
192 3 192 2 0 425 0 425 -167 -1 c-93 -1 -213 -5 -268 -9z"/>
<path d="M2230 6111 c0 -475 3 -593 15 -658 76 -399 342 -672 765 -785 108
-29 381 -37 502 -14 386 73 679 312 794 648 52 153 54 186 54 809 l0 579 -455
0 -454 0 -3 -517 c-3 -503 -4 -519 -24 -558 -28 -53 -76 -85 -129 -85 -53 0
-101 32 -129 85 -20 39 -21 55 -24 558 l-3 517 -454 0 -455 0 0 -579z"/>
<path d="M10852 5510 c-126 -34 -226 -93 -327 -195 -146 -145 -205 -287 -205
-495 0 -130 18 -210 72 -320 34 -69 60 -103 133 -176 150 -151 304 -214 518
-214 136 0 212 17 336 77 79 38 107 58 180 131 149 151 202 269 209 472 3 91
0 143 -12 192 -55 236 -236 434 -471 514 -69 24 -99 28 -220 31 -115 2 -153
-1 -213 -17z"/>
<path d="M40 2185 l0 -2185 825 0 825 0 0 549 0 549 -204 523 -203 524 35 3
c19 2 38 0 42 -5 4 -4 146 -367 316 -806 l309 -797 764 2 763 3 311 803 312
802 37 0 c21 0 38 -3 38 -6 0 -3 -92 -243 -205 -533 l-205 -527 0 -542 0 -542
825 0 825 0 0 2185 0 2185 -911 -2 -911 -3 -438 -1008 c-241 -555 -440 -1010
-442 -1012 -2 -1 -201 454 -443 1011 l-440 1014 -912 0 -913 0 0 -2185z"/>
</g>
</svg>
